<svg width="117" height="117" viewBox="0 0 117 117" fill="none" xmlns="http://www.w3.org/2000/svg">
<g clip-path="url(#clip0)">
<path d="M117 22.2257C112.694 24.1339 108.073 25.428 103.218 26.0057C108.175 23.0373 111.97 18.329 113.768 12.7359C109.118 15.4849 103.986 17.4809 98.5171 18.563C94.1378 13.8912 87.9087 10.9813 80.9996 10.9813C67.7445 10.9813 56.9972 21.7287 56.9972 34.9765C56.9972 36.8553 57.2092 38.6904 57.6187 40.4452C37.674 39.4435 19.9885 29.8879 8.15176 15.3679C6.08266 18.9065 4.90559 23.0298 4.90559 27.4313C4.90559 35.7587 9.14607 43.1064 15.5799 47.4052C11.6465 47.2737 7.94701 46.1916 4.70829 44.393V44.6928C4.70829 56.3175 12.9845 66.0193 23.9584 68.2274C21.9478 68.7684 19.8277 69.0682 17.6343 69.0682C16.0844 69.0682 14.5856 68.9147 13.116 68.6222C16.172 78.1632 25.0332 85.1014 35.5321 85.2916C27.3216 91.7255 16.969 95.5492 5.72459 95.5492C3.78721 95.5492 1.87888 95.4322 0 95.2202C10.6231 102.042 23.2348 106.019 36.7896 106.019C80.9414 106.019 105.076 69.4484 105.076 37.7328L104.995 34.6256C109.711 31.2623 113.79 27.0365 117 22.2257Z" fill="white"/>
</g>
<defs>
<clipPath id="clip0">
<rect width="117" height="117" fill="black"/>
</clipPath>
</defs>
</svg>
